<svg xmlns="http://www.w3.org/2000/svg" viewBox="0 0 32 32" x="0px" y="0px" width="32" height="32" preserveAspectRatio="xMidYMid meet">
  <g data-name="Layer 17">
    <path fill="white" d="M30.041,16A14.041,14.041,0,1,0,7.32831,27.02161a.71936.71936,0,0,0,.08215.06146,13.9487,13.9487,0,0,0,17.17908,0,.71936.71936,0,0,0,.08215-.06146A14.01294,14.01294,0,0,0,30.041,16ZM3.459,16a12.541,12.541,0,1,1,21.12677,9.1167A8.76364,8.76364,0,0,0,16,18.97021,8.76364,8.76364,0,0,0,7.41425,25.1167,12.49575,12.49575,0,0,1,3.459,16Zm5.1933,10.14166A7.45068,7.45068,0,0,1,16,20.47021a7.45068,7.45068,0,0,1,7.34772,5.67145,12.44838,12.44838,0,0,1-14.69544,0ZM16,16.6958A4.905,4.905,0,1,0,11.09473,11.791,4.91033,4.91033,0,0,0,16,16.6958Zm0-8.31006A3.405,3.405,0,1,1,12.59473,11.791,3.40911,3.40911,0,0,1,16,8.38574Z"/>
  </g>
</svg>